<svg xmlns="http://www.w3.org/2000/svg" version="1.1" xmlns:xlink="http://www.w3.org/1999/xlink" xmlns:svgjs="http://svgjs.com/svgjs" width="1500" height="1500" preserveAspectRatio="none" viewBox="0 0 1500 1500"><g mask="url(&quot;#SvgjsMask1138&quot;)" fill="none"><rect width="1500" height="1500" x="0" y="0" fill="url(#SvgjsRadialGradient1139)"></rect><path d="M1275 377L1687 -35" stroke-width="8" stroke="url(#SvgjsLinearGradient1140)" stroke-linecap="round" class="TopRight"></path><path d="M38 1089L-586 1713" stroke-width="8" stroke="url(#SvgjsLinearGradient1141)" stroke-linecap="round" class="TopRight"></path><path d="M1029 1158L1920 267" stroke-width="6" stroke="url(#SvgjsLinearGradient1141)" stroke-linecap="round" class="TopRight"></path><path d="M92 491L541 42" stroke-width="10" stroke="url(#SvgjsLinearGradient1142)" stroke-linecap="round" class="BottomLeft"></path><path d="M499 504L-271 1274" stroke-width="10" stroke="url(#SvgjsLinearGradient1141)" stroke-linecap="round" class="TopRight"></path><path d="M1430 540L1933 37" stroke-width="8" stroke="url(#SvgjsLinearGradient1143)" stroke-linecap="round" class="BottomLeft"></path><path d="M509 376L1363 -478" stroke-width="10" stroke="url(#SvgjsLinearGradient1141)" stroke-linecap="round" class="TopRight"></path><path d="M937 1184L1793 328" stroke-width="6" stroke="url(#SvgjsLinearGradient1140)" stroke-linecap="round" class="TopRight"></path><path d="M829 1354L1823 360" stroke-width="6" stroke="url(#SvgjsLinearGradient1142)" stroke-linecap="round" class="BottomLeft"></path><path d="M738 839L237 1340" stroke-width="10" stroke="url(#SvgjsLinearGradient1140)" stroke-linecap="round" class="TopRight"></path><path d="M193 1430L776 847" stroke-width="6" stroke="url(#SvgjsLinearGradient1143)" stroke-linecap="round" class="BottomLeft"></path><path d="M678 874L1778 -226" stroke-width="6" stroke="url(#SvgjsLinearGradient1140)" stroke-linecap="round" class="TopRight"></path><path d="M1078 887L1586 379" stroke-width="10" stroke="url(#SvgjsLinearGradient1142)" stroke-linecap="round" class="BottomLeft"></path><path d="M215 219L1176 -742" stroke-width="10" stroke="url(#SvgjsLinearGradient1143)" stroke-linecap="round" class="BottomLeft"></path><path d="M1109 955L2038 26" stroke-width="8" stroke="url(#SvgjsLinearGradient1142)" stroke-linecap="round" class="BottomLeft"></path><path d="M433 1407L-368 2208" stroke-width="10" stroke="url(#SvgjsLinearGradient1141)" stroke-linecap="round" class="TopRight"></path><path d="M563 905L-198 1666" stroke-width="10" stroke="url(#SvgjsLinearGradient1143)" stroke-linecap="round" class="BottomLeft"></path><path d="M1376 968L485 1859" stroke-width="10" stroke="url(#SvgjsLinearGradient1142)" stroke-linecap="round" class="BottomLeft"></path><path d="M386 965L789 562" stroke-width="8" stroke="url(#SvgjsLinearGradient1143)" stroke-linecap="round" class="BottomLeft"></path><path d="M719 1323L1373 669" stroke-width="8" stroke="url(#SvgjsLinearGradient1140)" stroke-linecap="round" class="TopRight"></path><path d="M421 168L1229 -640" stroke-width="8" stroke="url(#SvgjsLinearGradient1142)" stroke-linecap="round" class="BottomLeft"></path><path d="M518 475L-262 1255" stroke-width="6" stroke="url(#SvgjsLinearGradient1140)" stroke-linecap="round" class="TopRight"></path><path d="M661 1257L-284 2202" stroke-width="10" stroke="url(#SvgjsLinearGradient1143)" stroke-linecap="round" class="BottomLeft"></path><path d="M1036 1133L383 1786" stroke-width="10" stroke="url(#SvgjsLinearGradient1141)" stroke-linecap="round" class="TopRight"></path><path d="M1274 265L155 1384" stroke-width="8" stroke="url(#SvgjsLinearGradient1140)" stroke-linecap="round" class="TopRight"></path><path d="M968 240L180 1028" stroke-width="6" stroke="url(#SvgjsLinearGradient1140)" stroke-linecap="round" class="TopRight"></path><path d="M599 1109L-514 2222" stroke-width="8" stroke="url(#SvgjsLinearGradient1143)" stroke-linecap="round" class="BottomLeft"></path><path d="M999 628L1418 209" stroke-width="8" stroke="url(#SvgjsLinearGradient1141)" stroke-linecap="round" class="TopRight"></path><path d="M823 1459L1494 788" stroke-width="10" stroke="url(#SvgjsLinearGradient1143)" stroke-linecap="round" class="BottomLeft"></path><path d="M52 442L905 -411" stroke-width="8" stroke="url(#SvgjsLinearGradient1140)" stroke-linecap="round" class="TopRight"></path><path d="M1275 1174L1663 786" stroke-width="8" stroke="url(#SvgjsLinearGradient1140)" stroke-linecap="round" class="TopRight"></path><path d="M746 182L1502 -574" stroke-width="10" stroke="url(#SvgjsLinearGradient1142)" stroke-linecap="round" class="BottomLeft"></path><path d="M1456 1L1928 -471" stroke-width="10" stroke="url(#SvgjsLinearGradient1143)" stroke-linecap="round" class="BottomLeft"></path><path d="M1032 1336L1722 646" stroke-width="8" stroke="url(#SvgjsLinearGradient1143)" stroke-linecap="round" class="BottomLeft"></path><path d="M801 515L1370 -54" stroke-width="10" stroke="url(#SvgjsLinearGradient1140)" stroke-linecap="round" class="TopRight"></path><path d="M477 272L-155 904" stroke-width="10" stroke="url(#SvgjsLinearGradient1143)" stroke-linecap="round" class="BottomLeft"></path><path d="M1279 1437L1656 1060" stroke-width="6" stroke="url(#SvgjsLinearGradient1141)" stroke-linecap="round" class="TopRight"></path><path d="M356 466L1211 -389" stroke-width="8" stroke="url(#SvgjsLinearGradient1143)" stroke-linecap="round" class="BottomLeft"></path><path d="M461 427L-52 940" stroke-width="6" stroke="url(#SvgjsLinearGradient1142)" stroke-linecap="round" class="BottomLeft"></path><path d="M1126 574L2034 -334" stroke-width="6" stroke="url(#SvgjsLinearGradient1143)" stroke-linecap="round" class="BottomLeft"></path><path d="M392 762L-718 1872" stroke-width="10" stroke="url(#SvgjsLinearGradient1143)" stroke-linecap="round" class="BottomLeft"></path><path d="M1349 459L2178 -370" stroke-width="6" stroke="url(#SvgjsLinearGradient1141)" stroke-linecap="round" class="TopRight"></path><path d="M108 146L-790 1044" stroke-width="6" stroke="url(#SvgjsLinearGradient1143)" stroke-linecap="round" class="BottomLeft"></path><path d="M1338 1101L2297 142" stroke-width="8" stroke="url(#SvgjsLinearGradient1140)" stroke-linecap="round" class="TopRight"></path><path d="M92 749L1034 -193" stroke-width="8" stroke="url(#SvgjsLinearGradient1141)" stroke-linecap="round" class="TopRight"></path><path d="M625 682L1519 -212" stroke-width="10" stroke="url(#SvgjsLinearGradient1140)" stroke-linecap="round" class="TopRight"></path><path d="M29 443L-713 1185" stroke-width="8" stroke="url(#SvgjsLinearGradient1140)" stroke-linecap="round" class="TopRight"></path><path d="M472 519L893 98" stroke-width="6" stroke="url(#SvgjsLinearGradient1142)" stroke-linecap="round" class="BottomLeft"></path><path d="M1093 385L482 996" stroke-width="10" stroke="url(#SvgjsLinearGradient1140)" stroke-linecap="round" class="TopRight"></path><path d="M51 266L-956 1273" stroke-width="10" stroke="url(#SvgjsLinearGradient1140)" stroke-linecap="round" class="TopRight"></path><path d="M1309 680L2194 -205" stroke-width="8" stroke="url(#SvgjsLinearGradient1143)" stroke-linecap="round" class="BottomLeft"></path><path d="M1265 1450L140 2575" stroke-width="10" stroke="url(#SvgjsLinearGradient1142)" stroke-linecap="round" class="BottomLeft"></path><path d="M1127 469L2115 -519" stroke-width="10" stroke="url(#SvgjsLinearGradient1143)" stroke-linecap="round" class="BottomLeft"></path><path d="M693 1213L-50 1956" stroke-width="8" stroke="url(#SvgjsLinearGradient1141)" stroke-linecap="round" class="TopRight"></path></g><defs><mask id="SvgjsMask1138"><rect width="1500" height="1500" fill="#ffffff"></rect></mask><radialGradient cx="100%" cy="0%" r="2121.32" gradientUnits="userSpaceOnUse" id="SvgjsRadialGradient1139"><stop stop-color="rgba(1, 24, 105, 1)" offset="0"></stop><stop stop-color="rgba(9, 8, 34, 1)" offset="1"></stop></radialGradient><linearGradient x1="0%" y1="100%" x2="100%" y2="0%" id="SvgjsLinearGradient1140"><stop stop-color="rgba(247, 30, 123, 0)" offset="0"></stop><stop stop-color="rgba(247, 30, 123, 1)" offset="1"></stop></linearGradient><linearGradient x1="0%" y1="100%" x2="100%" y2="0%" id="SvgjsLinearGradient1141"><stop stop-color="rgba(255, 255, 255, 0)" offset="0"></stop><stop stop-color="rgba(255, 255, 255, 1)" offset="1"></stop></linearGradient><linearGradient x1="100%" y1="0%" x2="0%" y2="100%" id="SvgjsLinearGradient1142"><stop stop-color="rgba(247, 30, 123, 0)" offset="0"></stop><stop stop-color="rgba(247, 30, 123, 1)" offset="1"></stop></linearGradient><linearGradient x1="100%" y1="0%" x2="0%" y2="100%" id="SvgjsLinearGradient1143"><stop stop-color="rgba(255, 255, 255, 0)" offset="0"></stop><stop stop-color="rgba(255, 255, 255, 1)" offset="1"></stop></linearGradient></defs></svg>