<svg xmlns="http://www.w3.org/2000/svg" version="1.1" xmlns:xlink="http://www.w3.org/1999/xlink" xmlns:svgjs="http://svgjs.com/svgjs" width="1440" height="1000" preserveAspectRatio="none" viewBox="0 0 1440 1000"><g mask="url(&quot;#SvgjsMask12844&quot;)" fill="none"><rect width="1440" height="1000" x="0" y="0" fill="url(#SvgjsRadialGradient12845)"></rect><path d="M1167 40L1473 -266" stroke-width="8" stroke="url(#SvgjsLinearGradient12846)" stroke-linecap="round" class="BottomLeft"></path><path d="M1160 799L475 1484" stroke-width="8" stroke="url(#SvgjsLinearGradient12847)" stroke-linecap="round" class="BottomLeft"></path><path d="M530 700L56 1174" stroke-width="8" stroke="url(#SvgjsLinearGradient12847)" stroke-linecap="round" class="BottomLeft"></path><path d="M1034 944L737 1241" stroke-width="10" stroke="url(#SvgjsLinearGradient12847)" stroke-linecap="round" class="BottomLeft"></path><path d="M1297 903L760 1440" stroke-width="8" stroke="url(#SvgjsLinearGradient12848)" stroke-linecap="round" class="TopRight"></path><path d="M623 832L1323 132" stroke-width="10" stroke="url(#SvgjsLinearGradient12848)" stroke-linecap="round" class="TopRight"></path><path d="M1145 918L1744 319" stroke-width="8" stroke="url(#SvgjsLinearGradient12849)" stroke-linecap="round" class="TopRight"></path><path d="M1034 54L1448 -360" stroke-width="8" stroke="url(#SvgjsLinearGradient12849)" stroke-linecap="round" class="TopRight"></path><path d="M887 16L1298 -395" stroke-width="10" stroke="url(#SvgjsLinearGradient12846)" stroke-linecap="round" class="BottomLeft"></path><path d="M301 174L-426 901" stroke-width="8" stroke="url(#SvgjsLinearGradient12848)" stroke-linecap="round" class="TopRight"></path><path d="M179 81L-433 693" stroke-width="6" stroke="url(#SvgjsLinearGradient12849)" stroke-linecap="round" class="TopRight"></path><path d="M1080 352L340 1092" stroke-width="10" stroke="url(#SvgjsLinearGradient12849)" stroke-linecap="round" class="TopRight"></path><path d="M403 631L113 921" stroke-width="8" stroke="url(#SvgjsLinearGradient12846)" stroke-linecap="round" class="BottomLeft"></path><path d="M229 604L-296 1129" stroke-width="6" stroke="url(#SvgjsLinearGradient12848)" stroke-linecap="round" class="TopRight"></path><path d="M1170 925L1703 392" stroke-width="8" stroke="url(#SvgjsLinearGradient12847)" stroke-linecap="round" class="BottomLeft"></path><path d="M274 270L-468 1012" stroke-width="6" stroke="url(#SvgjsLinearGradient12846)" stroke-linecap="round" class="BottomLeft"></path><path d="M63 128L-315 506" stroke-width="8" stroke="url(#SvgjsLinearGradient12848)" stroke-linecap="round" class="TopRight"></path><path d="M493 533L139 887" stroke-width="8" stroke="url(#SvgjsLinearGradient12846)" stroke-linecap="round" class="BottomLeft"></path><path d="M215 370L-196 781" stroke-width="6" stroke="url(#SvgjsLinearGradient12849)" stroke-linecap="round" class="TopRight"></path><path d="M415 459L-216 1090" stroke-width="6" stroke="url(#SvgjsLinearGradient12846)" stroke-linecap="round" class="BottomLeft"></path><path d="M1304 244L928 620" stroke-width="6" stroke="url(#SvgjsLinearGradient12847)" stroke-linecap="round" class="BottomLeft"></path><path d="M724 93L1090 -273" stroke-width="6" stroke="url(#SvgjsLinearGradient12849)" stroke-linecap="round" class="TopRight"></path><path d="M122 911L-367 1400" stroke-width="6" stroke="url(#SvgjsLinearGradient12849)" stroke-linecap="round" class="TopRight"></path><path d="M1361 674L744 1291" stroke-width="10" stroke="url(#SvgjsLinearGradient12848)" stroke-linecap="round" class="TopRight"></path><path d="M262 376L865 -227" stroke-width="6" stroke="url(#SvgjsLinearGradient12847)" stroke-linecap="round" class="BottomLeft"></path><path d="M973 506L1407 72" stroke-width="8" stroke="url(#SvgjsLinearGradient12846)" stroke-linecap="round" class="BottomLeft"></path><path d="M1221 649L1818 52" stroke-width="8" stroke="url(#SvgjsLinearGradient12847)" stroke-linecap="round" class="BottomLeft"></path><path d="M769 818L79 1508" stroke-width="8" stroke="url(#SvgjsLinearGradient12849)" stroke-linecap="round" class="TopRight"></path><path d="M157 706L-108 971" stroke-width="10" stroke="url(#SvgjsLinearGradient12849)" stroke-linecap="round" class="TopRight"></path><path d="M1380 932L683 1629" stroke-width="8" stroke="url(#SvgjsLinearGradient12847)" stroke-linecap="round" class="BottomLeft"></path><path d="M220 374L-341 935" stroke-width="6" stroke="url(#SvgjsLinearGradient12849)" stroke-linecap="round" class="TopRight"></path><path d="M271 494L763 2" stroke-width="10" stroke="url(#SvgjsLinearGradient12846)" stroke-linecap="round" class="BottomLeft"></path><path d="M1189 615L923 881" stroke-width="8" stroke="url(#SvgjsLinearGradient12848)" stroke-linecap="round" class="TopRight"></path><path d="M1293 96L846 543" stroke-width="8" stroke="url(#SvgjsLinearGradient12846)" stroke-linecap="round" class="BottomLeft"></path><path d="M327 497L629 195" stroke-width="10" stroke="url(#SvgjsLinearGradient12847)" stroke-linecap="round" class="BottomLeft"></path><path d="M948 560L1664 -156" stroke-width="6" stroke="url(#SvgjsLinearGradient12847)" stroke-linecap="round" class="BottomLeft"></path><path d="M454 358L-101 913" stroke-width="10" stroke="url(#SvgjsLinearGradient12847)" stroke-linecap="round" class="BottomLeft"></path><path d="M754 790L52 1492" stroke-width="8" stroke="url(#SvgjsLinearGradient12847)" stroke-linecap="round" class="BottomLeft"></path><path d="M434 372L100 706" stroke-width="8" stroke="url(#SvgjsLinearGradient12849)" stroke-linecap="round" class="TopRight"></path><path d="M12 31L514 -471" stroke-width="8" stroke="url(#SvgjsLinearGradient12846)" stroke-linecap="round" class="BottomLeft"></path><path d="M169 639L834 -26" stroke-width="8" stroke="url(#SvgjsLinearGradient12847)" stroke-linecap="round" class="BottomLeft"></path><path d="M52 31L327 -244" stroke-width="10" stroke="url(#SvgjsLinearGradient12846)" stroke-linecap="round" class="BottomLeft"></path><path d="M213 463L-307 983" stroke-width="10" stroke="url(#SvgjsLinearGradient12848)" stroke-linecap="round" class="TopRight"></path><path d="M919 55L445 529" stroke-width="8" stroke="url(#SvgjsLinearGradient12849)" stroke-linecap="round" class="TopRight"></path></g><defs><mask id="SvgjsMask12844"><rect width="1440" height="1000" fill="#ffffff"></rect></mask><radialGradient cx="100%" cy="0%" r="1753.17" gradientUnits="userSpaceOnUse" id="SvgjsRadialGradient12845"><stop stop-color="rgba(1, 24, 105, 1)" offset="0"></stop><stop stop-color="rgba(9, 8, 34, 1)" offset="1"></stop></radialGradient><linearGradient x1="100%" y1="0%" x2="0%" y2="100%" id="SvgjsLinearGradient12846"><stop stop-color="rgba(255, 255, 255, 0)" offset="0"></stop><stop stop-color="rgba(255, 255, 255, 1)" offset="1"></stop></linearGradient><linearGradient x1="100%" y1="0%" x2="0%" y2="100%" id="SvgjsLinearGradient12847"><stop stop-color="rgba(247, 30, 123, 0)" offset="0"></stop><stop stop-color="rgba(247, 30, 123, 1)" offset="1"></stop></linearGradient><linearGradient x1="0%" y1="100%" x2="100%" y2="0%" id="SvgjsLinearGradient12848"><stop stop-color="rgba(247, 30, 123, 0)" offset="0"></stop><stop stop-color="rgba(247, 30, 123, 1)" offset="1"></stop></linearGradient><linearGradient x1="0%" y1="100%" x2="100%" y2="0%" id="SvgjsLinearGradient12849"><stop stop-color="rgba(255, 255, 255, 0)" offset="0"></stop><stop stop-color="rgba(255, 255, 255, 1)" offset="1"></stop></linearGradient></defs></svg>