<svg xmlns="http://www.w3.org/2000/svg" version="1.1" xmlns:xlink="http://www.w3.org/1999/xlink" xmlns:svgjs="http://svgjs.com/svgjs" width="1500" height="1500" preserveAspectRatio="none" viewBox="0 0 1500 1500"><g mask="url(&quot;#SvgjsMask1072&quot;)" fill="none"><rect width="1500" height="1500" x="0" y="0" fill="url(#SvgjsRadialGradient1073)"></rect><path d="M130 977L-774 73" stroke-width="10" stroke="url(#SvgjsLinearGradient1074)" stroke-linecap="round" class="TopLeft"></path><path d="M1359 1114L2020 1775" stroke-width="8" stroke="url(#SvgjsLinearGradient1074)" stroke-linecap="round" class="TopLeft"></path><path d="M120 404L-474 -190" stroke-width="6" stroke="url(#SvgjsLinearGradient1075)" stroke-linecap="round" class="BottomRight"></path><path d="M769 648L177 56" stroke-width="10" stroke="url(#SvgjsLinearGradient1076)" stroke-linecap="round" class="TopLeft"></path><path d="M1051 736L2123 1808" stroke-width="10" stroke="url(#SvgjsLinearGradient1076)" stroke-linecap="round" class="TopLeft"></path><path d="M256 1483L-308 919" stroke-width="8" stroke="url(#SvgjsLinearGradient1077)" stroke-linecap="round" class="BottomRight"></path><path d="M1419 620L1879 1080" stroke-width="6" stroke="url(#SvgjsLinearGradient1075)" stroke-linecap="round" class="BottomRight"></path><path d="M394 381L-7 -20" stroke-width="10" stroke="url(#SvgjsLinearGradient1077)" stroke-linecap="round" class="BottomRight"></path><path d="M137 1289L634 1786" stroke-width="8" stroke="url(#SvgjsLinearGradient1076)" stroke-linecap="round" class="TopLeft"></path><path d="M15 1163L914 2062" stroke-width="10" stroke="url(#SvgjsLinearGradient1077)" stroke-linecap="round" class="BottomRight"></path><path d="M698 493L-214 -419" stroke-width="6" stroke="url(#SvgjsLinearGradient1074)" stroke-linecap="round" class="TopLeft"></path><path d="M372 1395L1311 2334" stroke-width="10" stroke="url(#SvgjsLinearGradient1075)" stroke-linecap="round" class="BottomRight"></path><path d="M999 1348L448 797" stroke-width="8" stroke="url(#SvgjsLinearGradient1077)" stroke-linecap="round" class="BottomRight"></path><path d="M1207 1340L426 559" stroke-width="8" stroke="url(#SvgjsLinearGradient1075)" stroke-linecap="round" class="BottomRight"></path><path d="M53 1056L640 1643" stroke-width="6" stroke="url(#SvgjsLinearGradient1076)" stroke-linecap="round" class="TopLeft"></path><path d="M238 1041L1071 1874" stroke-width="6" stroke="url(#SvgjsLinearGradient1075)" stroke-linecap="round" class="BottomRight"></path><path d="M195 1110L942 1857" stroke-width="10" stroke="url(#SvgjsLinearGradient1076)" stroke-linecap="round" class="TopLeft"></path><path d="M729 736L-198 -191" stroke-width="8" stroke="url(#SvgjsLinearGradient1075)" stroke-linecap="round" class="BottomRight"></path><path d="M1463 1117L2048 1702" stroke-width="10" stroke="url(#SvgjsLinearGradient1076)" stroke-linecap="round" class="TopLeft"></path><path d="M509 974L1208 1673" stroke-width="10" stroke="url(#SvgjsLinearGradient1076)" stroke-linecap="round" class="TopLeft"></path><path d="M1394 552L546 -296" stroke-width="10" stroke="url(#SvgjsLinearGradient1076)" stroke-linecap="round" class="TopLeft"></path><path d="M1242 1152L126 36" stroke-width="6" stroke="url(#SvgjsLinearGradient1074)" stroke-linecap="round" class="TopLeft"></path><path d="M556 708L-135 17" stroke-width="6" stroke="url(#SvgjsLinearGradient1077)" stroke-linecap="round" class="BottomRight"></path><path d="M897 498L1321 922" stroke-width="6" stroke="url(#SvgjsLinearGradient1077)" stroke-linecap="round" class="BottomRight"></path><path d="M818 1101L1814 2097" stroke-width="10" stroke="url(#SvgjsLinearGradient1074)" stroke-linecap="round" class="TopLeft"></path><path d="M1398 781L1910 1293" stroke-width="8" stroke="url(#SvgjsLinearGradient1076)" stroke-linecap="round" class="TopLeft"></path><path d="M1385 130L2291 1036" stroke-width="6" stroke="url(#SvgjsLinearGradient1074)" stroke-linecap="round" class="TopLeft"></path><path d="M383 561L-714 -536" stroke-width="8" stroke="url(#SvgjsLinearGradient1076)" stroke-linecap="round" class="TopLeft"></path><path d="M1336 935L2133 1732" stroke-width="8" stroke="url(#SvgjsLinearGradient1074)" stroke-linecap="round" class="TopLeft"></path><path d="M545 1330L966 1751" stroke-width="10" stroke="url(#SvgjsLinearGradient1074)" stroke-linecap="round" class="TopLeft"></path><path d="M211 1479L1280 2548" stroke-width="8" stroke="url(#SvgjsLinearGradient1074)" stroke-linecap="round" class="TopLeft"></path><path d="M105 476L1137 1508" stroke-width="6" stroke="url(#SvgjsLinearGradient1075)" stroke-linecap="round" class="BottomRight"></path><path d="M1046 773L1535 1262" stroke-width="10" stroke="url(#SvgjsLinearGradient1077)" stroke-linecap="round" class="BottomRight"></path><path d="M1238 1264L641 667" stroke-width="8" stroke="url(#SvgjsLinearGradient1075)" stroke-linecap="round" class="BottomRight"></path><path d="M1054 437L451 -166" stroke-width="6" stroke="url(#SvgjsLinearGradient1074)" stroke-linecap="round" class="TopLeft"></path><path d="M315 632L-498 -181" stroke-width="10" stroke="url(#SvgjsLinearGradient1076)" stroke-linecap="round" class="TopLeft"></path><path d="M282 1206L-671 253" stroke-width="10" stroke="url(#SvgjsLinearGradient1074)" stroke-linecap="round" class="TopLeft"></path><path d="M832 369L241 -222" stroke-width="10" stroke="url(#SvgjsLinearGradient1074)" stroke-linecap="round" class="TopLeft"></path><path d="M1027 1202L616 791" stroke-width="8" stroke="url(#SvgjsLinearGradient1075)" stroke-linecap="round" class="BottomRight"></path><path d="M299 1350L-131 920" stroke-width="8" stroke="url(#SvgjsLinearGradient1074)" stroke-linecap="round" class="TopLeft"></path><path d="M1445 106L2039 700" stroke-width="10" stroke="url(#SvgjsLinearGradient1074)" stroke-linecap="round" class="TopLeft"></path><path d="M777 1028L-313 -62" stroke-width="8" stroke="url(#SvgjsLinearGradient1075)" stroke-linecap="round" class="BottomRight"></path><path d="M288 630L-508 -166" stroke-width="6" stroke="url(#SvgjsLinearGradient1075)" stroke-linecap="round" class="BottomRight"></path><path d="M105 63L-1000 -1042" stroke-width="8" stroke="url(#SvgjsLinearGradient1075)" stroke-linecap="round" class="BottomRight"></path><path d="M1390 621L867 98" stroke-width="8" stroke="url(#SvgjsLinearGradient1075)" stroke-linecap="round" class="BottomRight"></path><path d="M956 998L1536 1578" stroke-width="8" stroke="url(#SvgjsLinearGradient1077)" stroke-linecap="round" class="BottomRight"></path><path d="M1222 282L1992 1052" stroke-width="10" stroke="url(#SvgjsLinearGradient1075)" stroke-linecap="round" class="BottomRight"></path><path d="M1331 2L264 -1065" stroke-width="10" stroke="url(#SvgjsLinearGradient1075)" stroke-linecap="round" class="BottomRight"></path><path d="M1048 619L508 79" stroke-width="8" stroke="url(#SvgjsLinearGradient1076)" stroke-linecap="round" class="TopLeft"></path><path d="M1100 807L508 215" stroke-width="6" stroke="url(#SvgjsLinearGradient1077)" stroke-linecap="round" class="BottomRight"></path><path d="M846 249L1950 1353" stroke-width="10" stroke="url(#SvgjsLinearGradient1075)" stroke-linecap="round" class="BottomRight"></path><path d="M10 865L1086 1941" stroke-width="6" stroke="url(#SvgjsLinearGradient1075)" stroke-linecap="round" class="BottomRight"></path><path d="M1110 281L1857 1028" stroke-width="10" stroke="url(#SvgjsLinearGradient1076)" stroke-linecap="round" class="TopLeft"></path><path d="M673 987L1673 1987" stroke-width="6" stroke="url(#SvgjsLinearGradient1075)" stroke-linecap="round" class="BottomRight"></path></g><defs><mask id="SvgjsMask1072"><rect width="1500" height="1500" fill="#ffffff"></rect></mask><radialGradient cx="100%" cy="0%" r="2121.32" gradientUnits="userSpaceOnUse" id="SvgjsRadialGradient1073"><stop stop-color="rgba(1, 24, 105, 1)" offset="0"></stop><stop stop-color="rgba(9, 8, 34, 1)" offset="1"></stop></radialGradient><linearGradient x1="100%" y1="100%" x2="0%" y2="0%" id="SvgjsLinearGradient1074"><stop stop-color="rgba(255, 255, 255, 0)" offset="0"></stop><stop stop-color="rgba(255, 255, 255, 1)" offset="1"></stop></linearGradient><linearGradient x1="0%" y1="0%" x2="100%" y2="100%" id="SvgjsLinearGradient1075"><stop stop-color="rgba(247, 30, 123, 0)" offset="0"></stop><stop stop-color="rgba(247, 30, 123, 1)" offset="1"></stop></linearGradient><linearGradient x1="100%" y1="100%" x2="0%" y2="0%" id="SvgjsLinearGradient1076"><stop stop-color="rgba(247, 30, 123, 0)" offset="0"></stop><stop stop-color="rgba(247, 30, 123, 1)" offset="1"></stop></linearGradient><linearGradient x1="0%" y1="0%" x2="100%" y2="100%" id="SvgjsLinearGradient1077"><stop stop-color="rgba(255, 255, 255, 0)" offset="0"></stop><stop stop-color="rgba(255, 255, 255, 1)" offset="1"></stop></linearGradient></defs></svg>